<?xml version="1.0" encoding="UTF-8"?>
<svg xmlns="http://www.w3.org/2000/svg" viewBox="0 0 512 512">
  <defs>
    <linearGradient id="g" x1="0" y1="0" x2="1" y2="1">
      <stop offset="0" stop-color="#646cff"/>
      <stop offset="1" stop-color="#8a8fff"/>
    </linearGradient>
    <filter id="s" x="-20%" y="-20%" width="140%" height="140%">
      <feDropShadow dx="0" dy="4" stdDeviation="8" flood-color="#000" flood-opacity="0.25"/>
    </filter>
  </defs>

  <!-- Background -->
  <rect width="512" height="512" rx="112" ry="112" fill="#1f2130"/>

  <!-- Hub ring -->
  <g filter="url(#s)">
    <circle cx="256" cy="256" r="148" fill="none" stroke="url(#g)" stroke-width="22"/>
  </g>

  <!-- Spokes -->
  <g stroke="url(#g)" stroke-width="16" stroke-linecap="round">
    <line x1="256" y1="108" x2="256" y2="196"/>
    <line x1="404" y1="256" x2="316" y2="256"/>
    <line x1="256" y1="404" x2="256" y2="316"/>
    <line x1="108" y1="256" x2="196" y2="256"/>
  </g>

  <!-- Nodes -->
  <g fill="url(#g)" filter="url(#s)">
    <circle cx="256" cy="256" r="36"/>
    <circle cx="256" cy="92" r="22"/>
    <circle cx="420" cy="256" r="22"/>
    <circle cx="256" cy="420" r="22"/>
    <circle cx="92" cy="256" r="22"/>
  </g>

  <!-- Link accents -->
  <g fill="none" stroke="#b3b7ff" stroke-opacity="0.9" stroke-width="10" stroke-linecap="round">
    <path d="M216 216c20-20 60-20 80 0"/>
    <path d="M296 296c-20 20-60 20-80 0"/>
  </g>

  <!-- L mark for LinkHub -->
  <path d="M172 168v192h84" fill="none" stroke="#e9ebff" stroke-width="20" stroke-linecap="round" stroke-linejoin="round"/>
</svg>

